# xmcd
#
# Track frame offsets:
# 150
# 16016
# 32262
# 53406
# 68193
# 85677
# 104762
# 144031
# 164397
# 182357
# 201132
# 219112
# 240601
# 260284
# 281175
# 296992
# 314698
#
# Disc length: 4434 seconds
#
# Revision: 0
# Processed by: cddbd v1.4PL0 Copyright (c) Steve Scherf et al.
# Submitted via: Axialis_AX_CDPlayer 2.6
#
DISCID=e7115011
DTITLE=Mya - One Step Foward
DYEAR=1900
DGENRE=
TTITLE0=My Love Is Like
TTITLE1=Fallen
TTITLE2=Why You Gotta Look So Good
TTITLE3=Step
TTITLE4=Sophisticated Lady
TTITLE5=No Sleep Tonight
TTITLE6=Anatomy
TTITLE7=Hurry Up
TTITLE8=Things Come And go
TTITLE9=You
TTITLE10=After The Rain
TTITLE11=Late
TTITLE12=Whatever Bitch
TTITLE13=Taste This
TTITLE14=Take A Picture
TTITLE15=Free Fallin'
TTITLE16=Real Compared To What
EXTD=
EXTT0=
EXTT1=
EXTT2=
EXTT3=
EXTT4=
EXTT5=
EXTT6=
EXTT7=
EXTT8=
EXTT9=
EXTT10=
EXTT11=
EXTT12=
EXTT13=
EXTT14=
EXTT15=
EXTT16=
PLAYORDER=
